<?xml version="1.0" encoding="UTF-8" standalone="no"?>
<!DOCTYPE svg PUBLIC "-//W3C//DTD SVG 1.1//EN"
 "http://www.w3.org/Graphics/SVG/1.1/DTD/svg11.dtd">
<!-- Generated by graphviz version 2.40.1 (20161225.0304)
 -->
<!-- Title: structs Pages: 1 -->
<svg width="212pt" height="193pt"
 viewBox="0.00 0.00 212.00 193.00" xmlns="http://www.w3.org/2000/svg" xmlns:xlink="http://www.w3.org/1999/xlink">
<g id="graph0" class="graph" transform="scale(1 1) rotate(0) translate(4 189)">
<title>structs</title>
<polygon fill="#ffffff" stroke="transparent" points="-4,4 -4,-189 208,-189 208,4 -4,4"/>
<!-- header -->
<g id="node1" class="node">
<title>header</title>
<polygon fill="none" stroke="#000000" points="0,-.5 0,-184.5 71,-184.5 71,-.5 0,-.5"/>
<text text-anchor="middle" x="35.5" y="-169.3" font-family="Times,serif" font-size="14.00" fill="#000000">Header</text>
<polyline fill="none" stroke="#000000" points="0,-161.5 71,-161.5 "/>
<text text-anchor="middle" x="35.5" y="-146.3" font-family="Times,serif" font-size="14.00" fill="#000000">...</text>
<polyline fill="none" stroke="#000000" points="0,-138.5 71,-138.5 "/>
<text text-anchor="middle" x="35.5" y="-123.3" font-family="Times,serif" font-size="14.00" fill="#000000">table</text>
<polyline fill="none" stroke="#000000" points="0,-115.5 71,-115.5 "/>
<text text-anchor="middle" x="35.5" y="-100.3" font-family="Times,serif" font-size="14.00" fill="#000000">split</text>
<polyline fill="none" stroke="#000000" points="0,-92.5 71,-92.5 "/>
<text text-anchor="middle" x="35.5" y="-77.3" font-family="Times,serif" font-size="14.00" fill="#000000">media</text>
<polyline fill="none" stroke="#000000" points="0,-69.5 71,-69.5 "/>
<text text-anchor="middle" x="35.5" y="-54.3" font-family="Times,serif" font-size="14.00" fill="#000000">rater</text>
<polyline fill="none" stroke="#000000" points="0,-46.5 71,-46.5 "/>
<text text-anchor="middle" x="35.5" y="-31.3" font-family="Times,serif" font-size="14.00" fill="#000000">scheme</text>
<polyline fill="none" stroke="#000000" points="0,-23.5 71,-23.5 "/>
<text text-anchor="middle" x="35.5" y="-8.3" font-family="Times,serif" font-size="14.00" fill="#000000">...</text>
</g>
<!-- table -->
<g id="node2" class="node">
<title>table</title>
<polygon fill="none" stroke="#000000" points="107,-69.5 107,-115.5 204,-115.5 204,-69.5 107,-69.5"/>
<text text-anchor="middle" x="155.5" y="-100.3" font-family="Times,serif" font-size="14.00" fill="#000000">Table</text>
<polyline fill="none" stroke="#000000" points="107,-92.5 204,-92.5 "/>
<text text-anchor="middle" x="130.5" y="-77.3" font-family="Times,serif" font-size="14.00" fill="#000000">files</text>
<polyline fill="none" stroke="#000000" points="154,-69.5 154,-92.5 "/>
<text text-anchor="middle" x="166.5" y="-77.3" font-family="Times,serif" font-size="14.00" fill="#000000">x</text>
<polyline fill="none" stroke="#000000" points="179,-69.5 179,-92.5 "/>
<text text-anchor="middle" x="191.5" y="-77.3" font-family="Times,serif" font-size="14.00" fill="#000000">y</text>
</g>
<!-- header&#45;&gt;table -->
<g id="edge1" class="edge">
<title>header:split&#45;&gt;table</title>
<path fill="none" stroke="#000000" stroke-dasharray="1,5" d="M71,-104.5C79.4135,-104.5 88.2518,-103.9096 96.9125,-102.9908"/>
<polygon fill="#000000" stroke="#000000" points="97.4537,-106.451 106.9618,-101.777 96.6142,-99.5015 97.4537,-106.451"/>
</g>
<!-- header&#45;&gt;table -->
<g id="edge2" class="edge">
<title>header:media&#45;&gt;table:files</title>
<path fill="none" stroke="#000000" stroke-dasharray="1,5" d="M71,-80.5C83,-80.5 88.25,-80.5 96.875,-80.5"/>
<polygon fill="#000000" stroke="#000000" points="97,-84.0001 107,-80.5 97,-77.0001 97,-84.0001"/>
</g>
<!-- header&#45;&gt;table -->
<g id="edge3" class="edge">
<title>header:rater&#45;&gt;table:column</title>
<path fill="none" stroke="#000000" stroke-dasharray="1,5" d="M71,-57.5C109.7678,-57.5 156.7021,-32.2222 165.1615,-59.3221"/>
<polygon fill="#000000" stroke="#000000" points="161.7259,-60.0418 166.5,-69.5 168.6662,-59.129 161.7259,-60.0418"/>
</g>
<!-- header&#45;&gt;table -->
<g id="edge4" class="edge">
<title>header:scheme&#45;&gt;table:column</title>
<path fill="none" stroke="#000000" stroke-dasharray="1,5" d="M71,-34.5C112.4969,-34.5 158.2828,-25.9005 165.5153,-59.4577"/>
<polygon fill="#000000" stroke="#000000" points="162.0407,-59.8893 166.5,-69.5 169.0073,-59.2061 162.0407,-59.8893"/>
</g>
<!-- header&#45;&gt;table -->
<g id="edge5" class="edge">
<title>header:table&#45;&gt;table</title>
<path fill="none" stroke="#000000" d="M71,-127.5C83.4053,-127.5 96.1087,-124.2404 107.7729,-119.7106"/>
<polygon fill="#000000" stroke="#000000" points="109.4705,-122.7918 117.297,-115.6506 106.7254,-116.3524 109.4705,-122.7918"/>
</g>
</g>
</svg>
