<?xml version="1.0" encoding="UTF-8" standalone="no"?>
<!DOCTYPE svg PUBLIC "-//W3C//DTD SVG 1.1//EN"
 "http://www.w3.org/Graphics/SVG/1.1/DTD/svg11.dtd">
<!-- Generated by graphviz version 2.43.0 (0)
 -->
<!-- Title: structs Pages: 1 -->
<svg width="211pt" height="193pt"
 viewBox="0.00 0.00 211.00 193.00" xmlns="http://www.w3.org/2000/svg" xmlns:xlink="http://www.w3.org/1999/xlink">
<g id="graph0" class="graph" transform="scale(1 1) rotate(0) translate(4 189)">
<title>structs</title>
<polygon fill="white" stroke="transparent" points="-4,4 -4,-189 207,-189 207,4 -4,4"/>
<!-- header -->
<g id="node1" class="node">
<title>header</title>
<polygon fill="none" stroke="black" points="0,-0.5 0,-184.5 71,-184.5 71,-0.5 0,-0.5"/>
<text text-anchor="middle" x="35.5" y="-169.3" font-family="Times,serif" font-size="14.00">Header</text>
<polyline fill="none" stroke="black" points="0,-161.5 71,-161.5 "/>
<text text-anchor="middle" x="35.5" y="-146.3" font-family="Times,serif" font-size="14.00">...</text>
<polyline fill="none" stroke="black" points="0,-138.5 71,-138.5 "/>
<text text-anchor="middle" x="35.5" y="-123.3" font-family="Times,serif" font-size="14.00">table</text>
<polyline fill="none" stroke="black" points="0,-115.5 71,-115.5 "/>
<text text-anchor="middle" x="35.5" y="-100.3" font-family="Times,serif" font-size="14.00">split</text>
<polyline fill="none" stroke="black" points="0,-92.5 71,-92.5 "/>
<text text-anchor="middle" x="35.5" y="-77.3" font-family="Times,serif" font-size="14.00">media</text>
<polyline fill="none" stroke="black" points="0,-69.5 71,-69.5 "/>
<text text-anchor="middle" x="35.5" y="-54.3" font-family="Times,serif" font-size="14.00">rater</text>
<polyline fill="none" stroke="black" points="0,-46.5 71,-46.5 "/>
<text text-anchor="middle" x="35.5" y="-31.3" font-family="Times,serif" font-size="14.00">scheme</text>
<polyline fill="none" stroke="black" points="0,-23.5 71,-23.5 "/>
<text text-anchor="middle" x="35.5" y="-8.3" font-family="Times,serif" font-size="14.00">...</text>
</g>
<!-- table -->
<g id="node2" class="node">
<title>table</title>
<polygon fill="none" stroke="black" points="107,-69.5 107,-115.5 203,-115.5 203,-69.5 107,-69.5"/>
<text text-anchor="middle" x="155" y="-100.3" font-family="Times,serif" font-size="14.00">Table</text>
<polyline fill="none" stroke="black" points="107,-92.5 203,-92.5 "/>
<text text-anchor="middle" x="130" y="-77.3" font-family="Times,serif" font-size="14.00">files</text>
<polyline fill="none" stroke="black" points="153,-69.5 153,-92.5 "/>
<text text-anchor="middle" x="165.5" y="-77.3" font-family="Times,serif" font-size="14.00">x</text>
<polyline fill="none" stroke="black" points="178,-69.5 178,-92.5 "/>
<text text-anchor="middle" x="190.5" y="-77.3" font-family="Times,serif" font-size="14.00">y</text>
</g>
<!-- header&#45;&gt;table -->
<g id="edge1" class="edge">
<title>header:split&#45;&gt;table</title>
<path fill="none" stroke="black" stroke-dasharray="1,5" d="M71,-104.5C79.37,-104.5 88.17,-103.89 96.78,-102.96"/>
<polygon fill="black" stroke="black" points="97.27,-106.42 106.77,-101.72 96.41,-99.47 97.27,-106.42"/>
</g>
<!-- header&#45;&gt;table -->
<g id="edge2" class="edge">
<title>header:media&#45;&gt;table:files</title>
<path fill="none" stroke="black" stroke-dasharray="1,5" d="M71,-80.5C83,-80.5 88.25,-80.5 96.88,-80.5"/>
<polygon fill="black" stroke="black" points="97,-84 107,-80.5 97,-77 97,-84"/>
</g>
<!-- header&#45;&gt;table -->
<g id="edge3" class="edge">
<title>header:rater&#45;&gt;table:column</title>
<path fill="none" stroke="black" stroke-dasharray="1,5" d="M71,-57.5C109.52,-57.5 156.24,-31.63 164.67,-58.41"/>
<polygon fill="black" stroke="black" points="161.22,-59.04 166,-68.5 168.16,-58.13 161.22,-59.04"/>
</g>
<!-- header&#45;&gt;table -->
<g id="edge4" class="edge">
<title>header:scheme&#45;&gt;table:column</title>
<path fill="none" stroke="black" stroke-dasharray="1,5" d="M71,-34.5C111.99,-34.5 157.42,-25.44 164.92,-58.13"/>
<polygon fill="black" stroke="black" points="161.49,-58.91 166,-68.5 168.45,-58.19 161.49,-58.91"/>
</g>
<!-- header&#45;&gt;table -->
<g id="edge5" class="edge">
<title>header:table&#45;&gt;table</title>
<path fill="none" stroke="black" d="M71,-127.5C83.22,-127.5 95.71,-124.24 107.17,-119.71"/>
<polygon fill="black" stroke="black" points="108.74,-122.84 116.52,-115.65 105.95,-116.42 108.74,-122.84"/>
</g>
</g>
</svg>
