<?xml version="1.0" encoding="UTF-8" standalone="no"?>
<!DOCTYPE svg PUBLIC "-//W3C//DTD SVG 1.1//EN"
 "http://www.w3.org/Graphics/SVG/1.1/DTD/svg11.dtd">
<!-- Generated by graphviz version 2.40.1 (20161225.0304)
 -->
<!-- Title: structs Pages: 1 -->
<svg width="188pt" height="193pt"
 viewBox="0.00 0.00 188.00 193.00" xmlns="http://www.w3.org/2000/svg" xmlns:xlink="http://www.w3.org/1999/xlink">
<g id="graph0" class="graph" transform="scale(1 1) rotate(0) translate(4 189)">
<title>structs</title>
<polygon fill="#ffffff" stroke="transparent" points="-4,4 -4,-189 184,-189 184,4 -4,4"/>
<!-- header -->
<g id="node1" class="node">
<title>header</title>
<polygon fill="none" stroke="#000000" points="0,-.5 0,-184.5 58,-184.5 58,-.5 0,-.5"/>
<text text-anchor="middle" x="29" y="-169.3" font-family="Times,serif" font-size="14.00" fill="#000000">Header</text>
<polyline fill="none" stroke="#000000" points="0,-161.5 58,-161.5 "/>
<text text-anchor="middle" x="29" y="-146.3" font-family="Times,serif" font-size="14.00" fill="#000000">...</text>
<polyline fill="none" stroke="#000000" points="0,-138.5 58,-138.5 "/>
<text text-anchor="middle" x="29" y="-123.3" font-family="Times,serif" font-size="14.00" fill="#000000">table</text>
<polyline fill="none" stroke="#000000" points="0,-115.5 58,-115.5 "/>
<text text-anchor="middle" x="29" y="-100.3" font-family="Times,serif" font-size="14.00" fill="#000000">split</text>
<polyline fill="none" stroke="#000000" points="0,-92.5 58,-92.5 "/>
<text text-anchor="middle" x="29" y="-77.3" font-family="Times,serif" font-size="14.00" fill="#000000">media</text>
<polyline fill="none" stroke="#000000" points="0,-69.5 58,-69.5 "/>
<text text-anchor="middle" x="29" y="-54.3" font-family="Times,serif" font-size="14.00" fill="#000000">rater</text>
<polyline fill="none" stroke="#000000" points="0,-46.5 58,-46.5 "/>
<text text-anchor="middle" x="29" y="-31.3" font-family="Times,serif" font-size="14.00" fill="#000000">scheme</text>
<polyline fill="none" stroke="#000000" points="0,-23.5 58,-23.5 "/>
<text text-anchor="middle" x="29" y="-8.3" font-family="Times,serif" font-size="14.00" fill="#000000">...</text>
</g>
<!-- table -->
<g id="node2" class="node">
<title>table</title>
<polygon fill="none" stroke="#000000" points="94,-69.5 94,-115.5 180,-115.5 180,-69.5 94,-69.5"/>
<text text-anchor="middle" x="137" y="-100.3" font-family="Times,serif" font-size="14.00" fill="#000000">Table</text>
<polyline fill="none" stroke="#000000" points="94,-92.5 180,-92.5 "/>
<text text-anchor="middle" x="114" y="-77.3" font-family="Times,serif" font-size="14.00" fill="#000000">files</text>
<polyline fill="none" stroke="#000000" points="134,-69.5 134,-92.5 "/>
<text text-anchor="middle" x="145.5" y="-77.3" font-family="Times,serif" font-size="14.00" fill="#000000">x</text>
<polyline fill="none" stroke="#000000" points="157,-69.5 157,-92.5 "/>
<text text-anchor="middle" x="168.5" y="-77.3" font-family="Times,serif" font-size="14.00" fill="#000000">y</text>
</g>
<!-- header&#45;&gt;table -->
<g id="edge1" class="edge">
<title>header:split&#45;&gt;table</title>
<path fill="none" stroke="#000000" stroke-dasharray="1,5" d="M58,-104.5C66.3756,-104.5 75.1946,-103.8326 83.782,-102.8125"/>
<polygon fill="#000000" stroke="#000000" points="84.274,-106.2779 93.7161,-101.4719 83.3378,-99.3408 84.274,-106.2779"/>
</g>
<!-- header&#45;&gt;table -->
<g id="edge2" class="edge">
<title>header:media&#45;&gt;table:files</title>
<path fill="none" stroke="#000000" stroke-dasharray="1,5" d="M58,-80.5C70,-80.5 75.25,-80.5 83.875,-80.5"/>
<polygon fill="#000000" stroke="#000000" points="84,-84.0001 94,-80.5 84,-77.0001 84,-84.0001"/>
</g>
<!-- header&#45;&gt;table -->
<g id="edge3" class="edge">
<title>header:rater&#45;&gt;table:column</title>
<path fill="none" stroke="#000000" stroke-dasharray="1,5" d="M58,-57.5C93.4641,-57.5 136.2364,-35.324 144.5587,-59.4458"/>
<polygon fill="#000000" stroke="#000000" points="141.1163,-60.0979 146,-69.5 148.0454,-59.1045 141.1163,-60.0979"/>
</g>
<!-- header&#45;&gt;table -->
<g id="edge4" class="edge">
<title>header:scheme&#45;&gt;table:column</title>
<path fill="none" stroke="#000000" stroke-dasharray="1,5" d="M58,-34.5C96.3094,-34.5 137.7815,-28.6259 144.9243,-59.3053"/>
<polygon fill="#000000" stroke="#000000" points="141.4699,-59.9225 146,-69.5 148.4313,-59.1879 141.4699,-59.9225"/>
</g>
<!-- header&#45;&gt;table -->
<g id="edge5" class="edge">
<title>header:table&#45;&gt;table</title>
<path fill="none" stroke="#000000" d="M58,-127.5C69.6024,-127.5 81.4051,-124.3052 92.228,-119.8461"/>
<polygon fill="#000000" stroke="#000000" points="93.8021,-122.9753 101.4572,-115.6506 90.9052,-116.6028 93.8021,-122.9753"/>
</g>
</g>
</svg>
