<?xml version="1.0" encoding="UTF-8" standalone="no"?>
<!DOCTYPE svg PUBLIC "-//W3C//DTD SVG 1.1//EN"
 "http://www.w3.org/Graphics/SVG/1.1/DTD/svg11.dtd">
<!-- Generated by graphviz version 2.43.0 (0)
 -->
<!-- Title: structs Pages: 1 -->
<svg width="204pt" height="193pt"
 viewBox="0.00 0.00 204.00 193.00" xmlns="http://www.w3.org/2000/svg" xmlns:xlink="http://www.w3.org/1999/xlink">
<g id="graph0" class="graph" transform="scale(1 1) rotate(0) translate(4 189)">
<title>structs</title>
<polygon fill="white" stroke="transparent" points="-4,4 -4,-189 200,-189 200,4 -4,4"/>
<!-- header -->
<g id="node1" class="node">
<title>header</title>
<polygon fill="none" stroke="black" points="0,-0.5 0,-184.5 71,-184.5 71,-0.5 0,-0.5"/>
<text text-anchor="middle" x="35.5" y="-169.3" font-family="Times,serif" font-size="14.00">Header</text>
<polyline fill="none" stroke="black" points="0,-161.5 71,-161.5 "/>
<text text-anchor="middle" x="35.5" y="-146.3" font-family="Times,serif" font-size="14.00">...</text>
<polyline fill="none" stroke="black" points="0,-138.5 71,-138.5 "/>
<text text-anchor="middle" x="35.5" y="-123.3" font-family="Times,serif" font-size="14.00">table</text>
<polyline fill="none" stroke="black" points="0,-115.5 71,-115.5 "/>
<text text-anchor="middle" x="35.5" y="-100.3" font-family="Times,serif" font-size="14.00">split</text>
<polyline fill="none" stroke="black" points="0,-92.5 71,-92.5 "/>
<text text-anchor="middle" x="35.5" y="-77.3" font-family="Times,serif" font-size="14.00">media</text>
<polyline fill="none" stroke="black" points="0,-69.5 71,-69.5 "/>
<text text-anchor="middle" x="35.5" y="-54.3" font-family="Times,serif" font-size="14.00">rater</text>
<polyline fill="none" stroke="black" points="0,-46.5 71,-46.5 "/>
<text text-anchor="middle" x="35.5" y="-31.3" font-family="Times,serif" font-size="14.00">scheme</text>
<polyline fill="none" stroke="black" points="0,-23.5 71,-23.5 "/>
<text text-anchor="middle" x="35.5" y="-8.3" font-family="Times,serif" font-size="14.00">...</text>
</g>
<!-- table -->
<g id="node2" class="node">
<title>table</title>
<polygon fill="none" stroke="black" points="107,-64.5 107,-110.5 196,-110.5 196,-64.5 107,-64.5"/>
<text text-anchor="middle" x="151.5" y="-95.3" font-family="Times,serif" font-size="14.00">MiscTable</text>
<polyline fill="none" stroke="black" points="107,-87.5 196,-87.5 "/>
<text text-anchor="middle" x="126" y="-72.3" font-family="Times,serif" font-size="14.00">idx</text>
<polyline fill="none" stroke="black" points="145,-64.5 145,-87.5 "/>
<text text-anchor="middle" x="157.5" y="-72.3" font-family="Times,serif" font-size="14.00">x</text>
<polyline fill="none" stroke="black" points="170,-64.5 170,-87.5 "/>
<text text-anchor="middle" x="183" y="-72.3" font-family="Times,serif" font-size="14.00">y</text>
</g>
<!-- header&#45;&gt;table -->
<g id="edge1" class="edge">
<title>header:split&#45;&gt;table</title>
<path fill="none" stroke="black" stroke-dasharray="1,5" d="M71,-104.5C79.42,-104.5 88.23,-103.58 96.8,-102.16"/>
<polygon fill="black" stroke="black" points="97.52,-105.59 106.7,-100.3 96.23,-98.71 97.52,-105.59"/>
</g>
<!-- header&#45;&gt;table -->
<g id="edge2" class="edge">
<title>header:rater&#45;&gt;table:column</title>
<path fill="none" stroke="black" stroke-dasharray="1,5" d="M71,-57.5C105.47,-57.5 147.49,-31.46 155.97,-53.56"/>
<polygon fill="black" stroke="black" points="152.52,-54.15 157.5,-63.5 159.44,-53.08 152.52,-54.15"/>
</g>
<!-- header&#45;&gt;table -->
<g id="edge3" class="edge">
<title>header:scheme&#45;&gt;table:column</title>
<path fill="none" stroke="black" stroke-dasharray="1,5" d="M71,-34.5C107.75,-34.5 148.93,-25.02 156.33,-53.42"/>
<polygon fill="black" stroke="black" points="152.87,-53.97 157.5,-63.5 159.82,-53.16 152.87,-53.97"/>
</g>
<!-- header&#45;&gt;table -->
<g id="edge4" class="edge">
<title>header:table&#45;&gt;table</title>
<path fill="none" stroke="black" d="M71,-127.5C85.3,-127.5 99.65,-122.27 112.14,-115.6"/>
<polygon fill="black" stroke="black" points="113.99,-118.58 120.89,-110.54 110.48,-112.52 113.99,-118.58"/>
</g>
</g>
</svg>
