<?xml version="1.0" encoding="UTF-8" standalone="no"?>
<!DOCTYPE svg PUBLIC "-//W3C//DTD SVG 1.1//EN"
 "http://www.w3.org/Graphics/SVG/1.1/DTD/svg11.dtd">
<!-- Generated by graphviz version 2.43.0 (0)
 -->
<!-- Title: %3 Pages: 1 -->
<svg width="552pt" height="287pt"
 viewBox="0.00 0.00 551.50 287.00" xmlns="http://www.w3.org/2000/svg" xmlns:xlink="http://www.w3.org/1999/xlink">
<g id="graph0" class="graph" transform="scale(1 1) rotate(0) translate(4 283)">
<title>%3</title>
<polygon fill="white" stroke="transparent" points="-4,4 -4,-283 547.5,-283 547.5,4 -4,4"/>
<!-- header -->
<g id="node1" class="node">
<title>header</title>
<polygon fill="none" stroke="black" points="203,-163.5 203,-278.5 279,-278.5 279,-163.5 203,-163.5"/>
<text text-anchor="middle" x="241" y="-263.3" font-family="Times,serif" font-size="14.00">Header</text>
<polyline fill="none" stroke="black" points="203,-255.5 279,-255.5 "/>
<text text-anchor="middle" x="241" y="-240.3" font-family="Times,serif" font-size="14.00">...</text>
<polyline fill="none" stroke="black" points="203,-232.5 279,-232.5 "/>
<text text-anchor="middle" x="241" y="-217.3" font-family="Times,serif" font-size="14.00">Table#1</text>
<polyline fill="none" stroke="black" points="203,-209.5 279,-209.5 "/>
<text text-anchor="middle" x="241" y="-194.3" font-family="Times,serif" font-size="14.00">Table#2</text>
<polyline fill="none" stroke="black" points="203,-186.5 279,-186.5 "/>
<text text-anchor="middle" x="241" y="-171.3" font-family="Times,serif" font-size="14.00">...</text>
</g>
<!-- tbl1 -->
<g id="node2" class="node">
<title>tbl1</title>
<polygon fill="none" stroke="black" points="11,-87.5 11,-108.5 191,-108.5 191,-87.5 11,-87.5"/>
<text text-anchor="start" x="71" y="-94.3" font-family="Times,serif" font-size="14.00">Table#1</text>
<polygon fill="none" stroke="black" points="11,-64.5 11,-85.5 84,-85.5 84,-64.5 11,-64.5"/>
<text text-anchor="start" x="36.5" y="-71.3" font-family="Times,serif" font-size="14.00">file</text>
<polygon fill="none" stroke="black" points="86,-64.5 86,-85.5 132,-85.5 132,-64.5 86,-64.5"/>
<text text-anchor="start" x="89" y="-71.3" font-family="Times,serif" font-size="14.00">name</text>
<polygon fill="none" stroke="black" points="134,-64.5 134,-85.5 191,-85.5 191,-64.5 134,-64.5"/>
<text text-anchor="start" x="137" y="-71.3" font-family="Times,serif" font-size="14.00">gender</text>
<polygon fill="none" stroke="black" points="11,-41.5 11,-62.5 84,-62.5 84,-41.5 11,-41.5"/>
<text text-anchor="start" x="14" y="-48.3" font-family="Times,serif" font-size="14.00">alice.wav</text>
<polygon fill="none" stroke="black" points="86,-41.5 86,-62.5 132,-62.5 132,-41.5 86,-41.5"/>
<text text-anchor="start" x="91.5" y="-48.3" font-family="Times,serif" font-size="14.00">Alice</text>
<polygon fill="none" stroke="black" points="134,-41.5 134,-62.5 191,-62.5 191,-41.5 134,-41.5"/>
<text text-anchor="start" x="138" y="-48.3" font-family="Times,serif" font-size="14.00">female</text>
<polygon fill="none" stroke="black" points="11,-18.5 11,-39.5 84,-39.5 84,-18.5 11,-18.5"/>
<text text-anchor="start" x="17.5" y="-25.3" font-family="Times,serif" font-size="14.00">bob.wav</text>
<polygon fill="none" stroke="black" points="86,-18.5 86,-39.5 132,-39.5 132,-18.5 86,-18.5"/>
<text text-anchor="start" x="95" y="-25.3" font-family="Times,serif" font-size="14.00">Bob</text>
<polygon fill="none" stroke="black" points="134,-18.5 134,-39.5 191,-39.5 191,-18.5 134,-18.5"/>
<text text-anchor="start" x="145" y="-25.3" font-family="Times,serif" font-size="14.00">male</text>
<polygon fill="none" stroke="black" points="8,-15.5 8,-111.5 194,-111.5 194,-15.5 8,-15.5"/>
</g>
<!-- header&#45;&gt;tbl1 -->
<g id="edge1" class="edge">
<title>header:tbl1&#45;&gt;tbl1</title>
<path fill="none" stroke="black" d="M202,-221C154.5,-221 128.26,-169.47 114.52,-125.55"/>
<polygon fill="black" stroke="black" points="117.81,-124.34 111.61,-115.74 111.09,-126.33 117.81,-124.34"/>
</g>
<!-- tbl2 -->
<g id="node3" class="node">
<title>tbl2</title>
<polygon fill="none" stroke="black" points="232,-98.5 232,-119.5 533,-119.5 533,-98.5 232,-98.5"/>
<text text-anchor="start" x="352.5" y="-105.3" font-family="Times,serif" font-size="14.00">Table#2</text>
<polygon fill="none" stroke="black" points="232,-75.5 232,-96.5 305,-96.5 305,-75.5 232,-75.5"/>
<text text-anchor="start" x="257.5" y="-82.3" font-family="Times,serif" font-size="14.00">file</text>
<polygon fill="none" stroke="black" points="307,-75.5 307,-96.5 348,-96.5 348,-75.5 307,-75.5"/>
<text text-anchor="start" x="310" y="-82.3" font-family="Times,serif" font-size="14.00">start</text>
<polygon fill="none" stroke="black" points="350,-75.5 350,-96.5 383,-96.5 383,-75.5 350,-75.5"/>
<text text-anchor="start" x="353" y="-82.3" font-family="Times,serif" font-size="14.00">end</text>
<polygon fill="none" stroke="black" points="385,-75.5 385,-96.5 533,-96.5 533,-75.5 385,-75.5"/>
<text text-anchor="start" x="444.5" y="-82.3" font-family="Times,serif" font-size="14.00">text</text>
<polygon fill="none" stroke="black" points="232,-52.5 232,-73.5 305,-73.5 305,-52.5 232,-52.5"/>
<text text-anchor="start" x="235" y="-59.3" font-family="Times,serif" font-size="14.00">alice.wav</text>
<polygon fill="none" stroke="black" points="307,-52.5 307,-73.5 348,-73.5 348,-52.5 307,-52.5"/>
<text text-anchor="start" x="316" y="-59.3" font-family="Times,serif" font-size="14.00">0.2</text>
<polygon fill="none" stroke="black" points="350,-52.5 350,-73.5 383,-73.5 383,-52.5 350,-52.5"/>
<text text-anchor="start" x="355" y="-59.3" font-family="Times,serif" font-size="14.00">1.1</text>
<polygon fill="none" stroke="black" points="385,-52.5 385,-73.5 533,-73.5 533,-52.5 385,-52.5"/>
<text text-anchor="start" x="415" y="-59.3" font-family="Times,serif" font-size="14.00">Hi, I&#39;m Alice</text>
<polygon fill="none" stroke="black" points="232,-29.5 232,-50.5 305,-50.5 305,-29.5 232,-29.5"/>
<text text-anchor="start" x="238.5" y="-36.3" font-family="Times,serif" font-size="14.00">bob.wav</text>
<polygon fill="none" stroke="black" points="307,-29.5 307,-50.5 348,-50.5 348,-29.5 307,-29.5"/>
<text text-anchor="start" x="316" y="-36.3" font-family="Times,serif" font-size="14.00">1.4</text>
<polygon fill="none" stroke="black" points="350,-29.5 350,-50.5 383,-50.5 383,-29.5 350,-29.5"/>
<text text-anchor="start" x="355" y="-36.3" font-family="Times,serif" font-size="14.00">3.0</text>
<polygon fill="none" stroke="black" points="385,-29.5 385,-50.5 533,-50.5 533,-29.5 385,-29.5"/>
<text text-anchor="start" x="388" y="-36.3" font-family="Times,serif" font-size="14.00">How are you doing?</text>
<polygon fill="none" stroke="black" points="232,-6.5 232,-27.5 305,-27.5 305,-6.5 232,-6.5"/>
<text text-anchor="start" x="235" y="-13.3" font-family="Times,serif" font-size="14.00">alice.wav</text>
<polygon fill="none" stroke="black" points="307,-6.5 307,-27.5 348,-27.5 348,-6.5 307,-6.5"/>
<text text-anchor="start" x="316" y="-13.3" font-family="Times,serif" font-size="14.00">3.4</text>
<polygon fill="none" stroke="black" points="350,-6.5 350,-27.5 383,-27.5 383,-6.5 350,-6.5"/>
<text text-anchor="start" x="355" y="-13.3" font-family="Times,serif" font-size="14.00">4.7</text>
<polygon fill="none" stroke="black" points="385,-6.5 385,-27.5 533,-27.5 533,-6.5 385,-6.5"/>
<text text-anchor="start" x="395" y="-13.3" font-family="Times,serif" font-size="14.00">Thanks, I&#39;m good!</text>
<polygon fill="none" stroke="black" points="228.5,-4 228.5,-123 535.5,-123 535.5,-4 228.5,-4"/>
</g>
<!-- header&#45;&gt;tbl2 -->
<g id="edge2" class="edge">
<title>header:tbl2&#45;&gt;tbl2</title>
<path fill="none" stroke="black" d="M280,-198C315.31,-198 340.03,-168.15 356.29,-136.68"/>
<polygon fill="black" stroke="black" points="359.6,-137.86 360.85,-127.34 353.32,-134.79 359.6,-137.86"/>
</g>
</g>
</svg>
