<?xml version="1.0" encoding="UTF-8" standalone="no"?>
<!DOCTYPE svg PUBLIC "-//W3C//DTD SVG 1.1//EN"
 "http://www.w3.org/Graphics/SVG/1.1/DTD/svg11.dtd">
<!-- Generated by graphviz version 2.43.0 (0)
 -->
<!-- Title: structs Pages: 1 -->
<svg width="223pt" height="216pt"
 viewBox="0.00 0.00 223.00 216.00" xmlns="http://www.w3.org/2000/svg" xmlns:xlink="http://www.w3.org/1999/xlink">
<g id="graph0" class="graph" transform="scale(1 1) rotate(0) translate(4 212)">
<title>structs</title>
<polygon fill="white" stroke="transparent" points="-4,4 -4,-212 219,-212 219,4 -4,4"/>
<!-- header -->
<g id="node1" class="node">
<title>header</title>
<polygon fill="none" stroke="black" points="0,-0.5 0,-207.5 90,-207.5 90,-0.5 0,-0.5"/>
<text text-anchor="middle" x="45" y="-192.3" font-family="Times,serif" font-size="14.00">Header</text>
<polyline fill="none" stroke="black" points="0,-184.5 90,-184.5 "/>
<text text-anchor="middle" x="45" y="-169.3" font-family="Times,serif" font-size="14.00">...</text>
<polyline fill="none" stroke="black" points="0,-161.5 90,-161.5 "/>
<text text-anchor="middle" x="45" y="-146.3" font-family="Times,serif" font-size="14.00">misc table</text>
<polyline fill="none" stroke="black" points="0,-138.5 90,-138.5 "/>
<text text-anchor="middle" x="45" y="-123.3" font-family="Times,serif" font-size="14.00">table</text>
<polyline fill="none" stroke="black" points="0,-115.5 90,-115.5 "/>
<text text-anchor="middle" x="45" y="-100.3" font-family="Times,serif" font-size="14.00">split</text>
<polyline fill="none" stroke="black" points="0,-92.5 90,-92.5 "/>
<text text-anchor="middle" x="45" y="-77.3" font-family="Times,serif" font-size="14.00">media</text>
<polyline fill="none" stroke="black" points="0,-69.5 90,-69.5 "/>
<text text-anchor="middle" x="45" y="-54.3" font-family="Times,serif" font-size="14.00">rater</text>
<polyline fill="none" stroke="black" points="0,-46.5 90,-46.5 "/>
<text text-anchor="middle" x="45" y="-31.3" font-family="Times,serif" font-size="14.00">scheme</text>
<polyline fill="none" stroke="black" points="0,-23.5 90,-23.5 "/>
<text text-anchor="middle" x="45" y="-8.3" font-family="Times,serif" font-size="14.00">...</text>
</g>
<!-- table -->
<g id="node2" class="node">
<title>table</title>
<polygon fill="none" stroke="black" points="126,-70 126,-116 215,-116 215,-70 126,-70"/>
<text text-anchor="middle" x="170.5" y="-100.8" font-family="Times,serif" font-size="14.00">MiscTable</text>
<polyline fill="none" stroke="black" points="126,-93 215,-93 "/>
<text text-anchor="middle" x="145" y="-77.8" font-family="Times,serif" font-size="14.00">idx</text>
<polyline fill="none" stroke="black" points="164,-70 164,-93 "/>
<text text-anchor="middle" x="176.5" y="-77.8" font-family="Times,serif" font-size="14.00">x</text>
<polyline fill="none" stroke="black" points="189,-70 189,-93 "/>
<text text-anchor="middle" x="202" y="-77.8" font-family="Times,serif" font-size="14.00">y</text>
</g>
<!-- header&#45;&gt;table -->
<g id="edge1" class="edge">
<title>header:split&#45;&gt;table</title>
<path fill="none" stroke="black" stroke-dasharray="1,5" d="M90,-104C98.41,-104 107.28,-103.39 115.92,-102.45"/>
<polygon fill="black" stroke="black" points="116.41,-105.92 125.91,-101.22 115.56,-98.97 116.41,-105.92"/>
</g>
<!-- header&#45;&gt;table -->
<g id="edge2" class="edge">
<title>header:media&#45;&gt;table:idx</title>
<path fill="none" stroke="black" stroke-dasharray="1,5" d="M90,-81C102,-81 107.25,-81 115.88,-81"/>
<polygon fill="black" stroke="black" points="116,-84.5 126,-81 116,-77.5 116,-84.5"/>
</g>
<!-- header&#45;&gt;table -->
<g id="edge3" class="edge">
<title>header:rater&#45;&gt;table:column</title>
<path fill="none" stroke="black" stroke-dasharray="1,5" d="M90,-58C124.67,-58 166.53,-35.79 174.97,-58.85"/>
<polygon fill="black" stroke="black" points="171.55,-59.63 176.5,-69 178.47,-58.59 171.55,-59.63"/>
</g>
<!-- header&#45;&gt;table -->
<g id="edge4" class="edge">
<title>header:scheme&#45;&gt;table:column</title>
<path fill="none" stroke="black" stroke-dasharray="1,5" d="M90,-35C127.6,-35 168.41,-28.95 175.44,-59"/>
<polygon fill="black" stroke="black" points="171.97,-59.42 176.5,-69 178.93,-58.69 171.97,-59.42"/>
</g>
<!-- header&#45;&gt;table -->
<g id="edge5" class="edge">
<title>header:misctable&#45;&gt;table</title>
<path fill="none" stroke="black" d="M90,-150C110.63,-150 129.59,-137.16 143.81,-123.67"/>
<polygon fill="black" stroke="black" points="146.67,-125.76 151.21,-116.18 141.69,-120.84 146.67,-125.76"/>
</g>
</g>
</svg>
