<?xml version="1.0" encoding="UTF-8" standalone="no"?>
<!DOCTYPE svg PUBLIC "-//W3C//DTD SVG 1.1//EN"
 "http://www.w3.org/Graphics/SVG/1.1/DTD/svg11.dtd">
<!-- Generated by graphviz version 2.43.0 (0)
 -->
<!-- Title: %3 Pages: 1 -->
<svg width="560pt" height="287pt"
 viewBox="0.00 0.00 560.00 287.00" xmlns="http://www.w3.org/2000/svg" xmlns:xlink="http://www.w3.org/1999/xlink">
<g id="graph0" class="graph" transform="scale(1 1) rotate(0) translate(4 283)">
<title>%3</title>
<polygon fill="white" stroke="transparent" points="-4,4 -4,-283 556,-283 556,4 -4,4"/>
<!-- header -->
<g id="node1" class="node">
<title>header</title>
<polygon fill="none" stroke="black" points="207.5,-163.5 207.5,-278.5 283.5,-278.5 283.5,-163.5 207.5,-163.5"/>
<text text-anchor="middle" x="245.5" y="-263.3" font-family="Times,serif" font-size="14.00">Header</text>
<polyline fill="none" stroke="black" points="207.5,-255.5 283.5,-255.5 "/>
<text text-anchor="middle" x="245.5" y="-240.3" font-family="Times,serif" font-size="14.00">...</text>
<polyline fill="none" stroke="black" points="207.5,-232.5 283.5,-232.5 "/>
<text text-anchor="middle" x="245.5" y="-217.3" font-family="Times,serif" font-size="14.00">Table#1</text>
<polyline fill="none" stroke="black" points="207.5,-209.5 283.5,-209.5 "/>
<text text-anchor="middle" x="245.5" y="-194.3" font-family="Times,serif" font-size="14.00">Table#2</text>
<polyline fill="none" stroke="black" points="207.5,-186.5 283.5,-186.5 "/>
<text text-anchor="middle" x="245.5" y="-171.3" font-family="Times,serif" font-size="14.00">...</text>
</g>
<!-- tbl1 -->
<g id="node2" class="node">
<title>tbl1</title>
<polygon fill="none" stroke="black" points="11.5,-87.5 11.5,-108.5 196.5,-108.5 196.5,-87.5 11.5,-87.5"/>
<text text-anchor="start" x="74" y="-94.3" font-family="Times,serif" font-size="14.00">Table#1</text>
<polygon fill="none" stroke="black" points="11.5,-64.5 11.5,-85.5 84.5,-85.5 84.5,-64.5 11.5,-64.5"/>
<text text-anchor="start" x="34" y="-71.3" font-family="Times,serif" font-size="14.00">File</text>
<polygon fill="none" stroke="black" points="86.5,-64.5 86.5,-85.5 135.5,-85.5 135.5,-64.5 86.5,-64.5"/>
<text text-anchor="start" x="89.5" y="-71.3" font-family="Times,serif" font-size="14.00">Name</text>
<polygon fill="none" stroke="black" points="137.5,-64.5 137.5,-85.5 196.5,-85.5 196.5,-64.5 137.5,-64.5"/>
<text text-anchor="start" x="140.5" y="-71.3" font-family="Times,serif" font-size="14.00">Gender</text>
<polygon fill="none" stroke="black" points="11.5,-41.5 11.5,-62.5 84.5,-62.5 84.5,-41.5 11.5,-41.5"/>
<text text-anchor="start" x="14.5" y="-48.3" font-family="Times,serif" font-size="14.00">alice.wav</text>
<polygon fill="none" stroke="black" points="86.5,-41.5 86.5,-62.5 135.5,-62.5 135.5,-41.5 86.5,-41.5"/>
<text text-anchor="start" x="93.5" y="-48.3" font-family="Times,serif" font-size="14.00">Alice</text>
<polygon fill="none" stroke="black" points="137.5,-41.5 137.5,-62.5 196.5,-62.5 196.5,-41.5 137.5,-41.5"/>
<text text-anchor="start" x="142.5" y="-48.3" font-family="Times,serif" font-size="14.00">female</text>
<polygon fill="none" stroke="black" points="11.5,-18.5 11.5,-39.5 84.5,-39.5 84.5,-18.5 11.5,-18.5"/>
<text text-anchor="start" x="18" y="-25.3" font-family="Times,serif" font-size="14.00">bob.wav</text>
<polygon fill="none" stroke="black" points="86.5,-18.5 86.5,-39.5 135.5,-39.5 135.5,-18.5 86.5,-18.5"/>
<text text-anchor="start" x="97" y="-25.3" font-family="Times,serif" font-size="14.00">Bob</text>
<polygon fill="none" stroke="black" points="137.5,-18.5 137.5,-39.5 196.5,-39.5 196.5,-18.5 137.5,-18.5"/>
<text text-anchor="start" x="149.5" y="-25.3" font-family="Times,serif" font-size="14.00">male</text>
<polygon fill="none" stroke="black" points="8,-15.5 8,-111.5 199,-111.5 199,-15.5 8,-15.5"/>
</g>
<!-- header&#45;&gt;tbl1 -->
<g id="edge1" class="edge">
<title>header:tbl1&#45;&gt;tbl1</title>
<path fill="none" stroke="black" d="M206.5,-221C158.72,-221 131.86,-169.47 117.64,-125.55"/>
<polygon fill="black" stroke="black" points="120.91,-124.28 114.63,-115.74 114.22,-126.33 120.91,-124.28"/>
</g>
<!-- tbl2 -->
<g id="node3" class="node">
<title>tbl2</title>
<polygon fill="none" stroke="black" points="236.5,-98.5 236.5,-119.5 541.5,-119.5 541.5,-98.5 236.5,-98.5"/>
<text text-anchor="start" x="359" y="-105.3" font-family="Times,serif" font-size="14.00">Table#2</text>
<polygon fill="none" stroke="black" points="236.5,-75.5 236.5,-96.5 309.5,-96.5 309.5,-75.5 236.5,-75.5"/>
<text text-anchor="start" x="259" y="-82.3" font-family="Times,serif" font-size="14.00">File</text>
<polygon fill="none" stroke="black" points="311.5,-75.5 311.5,-96.5 354.5,-96.5 354.5,-75.5 311.5,-75.5"/>
<text text-anchor="start" x="314.5" y="-82.3" font-family="Times,serif" font-size="14.00">Start</text>
<polygon fill="none" stroke="black" points="356.5,-75.5 356.5,-96.5 391.5,-96.5 391.5,-75.5 356.5,-75.5"/>
<text text-anchor="start" x="359.5" y="-82.3" font-family="Times,serif" font-size="14.00">End</text>
<polygon fill="none" stroke="black" points="393.5,-75.5 393.5,-96.5 541.5,-96.5 541.5,-75.5 393.5,-75.5"/>
<text text-anchor="start" x="452" y="-82.3" font-family="Times,serif" font-size="14.00">Text</text>
<polygon fill="none" stroke="black" points="236.5,-52.5 236.5,-73.5 309.5,-73.5 309.5,-52.5 236.5,-52.5"/>
<text text-anchor="start" x="239.5" y="-59.3" font-family="Times,serif" font-size="14.00">alice.wav</text>
<polygon fill="none" stroke="black" points="311.5,-52.5 311.5,-73.5 354.5,-73.5 354.5,-52.5 311.5,-52.5"/>
<text text-anchor="start" x="321.5" y="-59.3" font-family="Times,serif" font-size="14.00">0.2</text>
<polygon fill="none" stroke="black" points="356.5,-52.5 356.5,-73.5 391.5,-73.5 391.5,-52.5 356.5,-52.5"/>
<text text-anchor="start" x="362.5" y="-59.3" font-family="Times,serif" font-size="14.00">1.1</text>
<polygon fill="none" stroke="black" points="393.5,-52.5 393.5,-73.5 541.5,-73.5 541.5,-52.5 393.5,-52.5"/>
<text text-anchor="start" x="423.5" y="-59.3" font-family="Times,serif" font-size="14.00">Hi, I&#39;m Alice</text>
<polygon fill="none" stroke="black" points="236.5,-29.5 236.5,-50.5 309.5,-50.5 309.5,-29.5 236.5,-29.5"/>
<text text-anchor="start" x="243" y="-36.3" font-family="Times,serif" font-size="14.00">bob.wav</text>
<polygon fill="none" stroke="black" points="311.5,-29.5 311.5,-50.5 354.5,-50.5 354.5,-29.5 311.5,-29.5"/>
<text text-anchor="start" x="321.5" y="-36.3" font-family="Times,serif" font-size="14.00">1.4</text>
<polygon fill="none" stroke="black" points="356.5,-29.5 356.5,-50.5 391.5,-50.5 391.5,-29.5 356.5,-29.5"/>
<text text-anchor="start" x="362.5" y="-36.3" font-family="Times,serif" font-size="14.00">3.0</text>
<polygon fill="none" stroke="black" points="393.5,-29.5 393.5,-50.5 541.5,-50.5 541.5,-29.5 393.5,-29.5"/>
<text text-anchor="start" x="396.5" y="-36.3" font-family="Times,serif" font-size="14.00">How are you doing?</text>
<polygon fill="none" stroke="black" points="236.5,-6.5 236.5,-27.5 309.5,-27.5 309.5,-6.5 236.5,-6.5"/>
<text text-anchor="start" x="239.5" y="-13.3" font-family="Times,serif" font-size="14.00">alice.wav</text>
<polygon fill="none" stroke="black" points="311.5,-6.5 311.5,-27.5 354.5,-27.5 354.5,-6.5 311.5,-6.5"/>
<text text-anchor="start" x="321.5" y="-13.3" font-family="Times,serif" font-size="14.00">3.4</text>
<polygon fill="none" stroke="black" points="356.5,-6.5 356.5,-27.5 391.5,-27.5 391.5,-6.5 356.5,-6.5"/>
<text text-anchor="start" x="362.5" y="-13.3" font-family="Times,serif" font-size="14.00">4.7</text>
<polygon fill="none" stroke="black" points="393.5,-6.5 393.5,-27.5 541.5,-27.5 541.5,-6.5 393.5,-6.5"/>
<text text-anchor="start" x="403.5" y="-13.3" font-family="Times,serif" font-size="14.00">Thanks, I&#39;m good!</text>
<polygon fill="none" stroke="black" points="233,-4 233,-123 544,-123 544,-4 233,-4"/>
</g>
<!-- header&#45;&gt;tbl2 -->
<g id="edge2" class="edge">
<title>header:tbl2&#45;&gt;tbl2</title>
<path fill="none" stroke="black" d="M284.5,-198C320.06,-198 345.25,-168.15 361.92,-136.68"/>
<polygon fill="black" stroke="black" points="365.25,-137.85 366.61,-127.34 358.99,-134.71 365.25,-137.85"/>
</g>
</g>
</svg>
