<?xml version="1.0" encoding="UTF-8" standalone="no"?>
<!DOCTYPE svg PUBLIC "-//W3C//DTD SVG 1.1//EN"
 "http://www.w3.org/Graphics/SVG/1.1/DTD/svg11.dtd">
<!-- Generated by graphviz version 2.43.0 (0)
 -->
<!-- Title: structs Pages: 1 -->
<svg width="230pt" height="216pt"
 viewBox="0.00 0.00 230.00 216.00" xmlns="http://www.w3.org/2000/svg" xmlns:xlink="http://www.w3.org/1999/xlink">
<g id="graph0" class="graph" transform="scale(1 1) rotate(0) translate(4 212)">
<title>structs</title>
<polygon fill="white" stroke="transparent" points="-4,4 -4,-212 226,-212 226,4 -4,4"/>
<!-- header -->
<g id="node1" class="node">
<title>header</title>
<polygon fill="none" stroke="black" points="0,-0.5 0,-207.5 90,-207.5 90,-0.5 0,-0.5"/>
<text text-anchor="middle" x="45" y="-192.3" font-family="Times,serif" font-size="14.00">Header</text>
<polyline fill="none" stroke="black" points="0,-184.5 90,-184.5 "/>
<text text-anchor="middle" x="45" y="-169.3" font-family="Times,serif" font-size="14.00">...</text>
<polyline fill="none" stroke="black" points="0,-161.5 90,-161.5 "/>
<text text-anchor="middle" x="45" y="-146.3" font-family="Times,serif" font-size="14.00">misc table</text>
<polyline fill="none" stroke="black" points="0,-138.5 90,-138.5 "/>
<text text-anchor="middle" x="45" y="-123.3" font-family="Times,serif" font-size="14.00">table</text>
<polyline fill="none" stroke="black" points="0,-115.5 90,-115.5 "/>
<text text-anchor="middle" x="45" y="-100.3" font-family="Times,serif" font-size="14.00">split</text>
<polyline fill="none" stroke="black" points="0,-92.5 90,-92.5 "/>
<text text-anchor="middle" x="45" y="-77.3" font-family="Times,serif" font-size="14.00">media</text>
<polyline fill="none" stroke="black" points="0,-69.5 90,-69.5 "/>
<text text-anchor="middle" x="45" y="-54.3" font-family="Times,serif" font-size="14.00">rater</text>
<polyline fill="none" stroke="black" points="0,-46.5 90,-46.5 "/>
<text text-anchor="middle" x="45" y="-31.3" font-family="Times,serif" font-size="14.00">scheme</text>
<polyline fill="none" stroke="black" points="0,-23.5 90,-23.5 "/>
<text text-anchor="middle" x="45" y="-8.3" font-family="Times,serif" font-size="14.00">...</text>
</g>
<!-- table -->
<g id="node2" class="node">
<title>table</title>
<polygon fill="none" stroke="black" points="126,-70 126,-116 222,-116 222,-70 126,-70"/>
<text text-anchor="middle" x="174" y="-100.8" font-family="Times,serif" font-size="14.00">Table</text>
<polyline fill="none" stroke="black" points="126,-93 222,-93 "/>
<text text-anchor="middle" x="149" y="-77.8" font-family="Times,serif" font-size="14.00">files</text>
<polyline fill="none" stroke="black" points="172,-70 172,-93 "/>
<text text-anchor="middle" x="184.5" y="-77.8" font-family="Times,serif" font-size="14.00">x</text>
<polyline fill="none" stroke="black" points="197,-70 197,-93 "/>
<text text-anchor="middle" x="209.5" y="-77.8" font-family="Times,serif" font-size="14.00">y</text>
</g>
<!-- header&#45;&gt;table -->
<g id="edge1" class="edge">
<title>header:split&#45;&gt;table</title>
<path fill="none" stroke="black" stroke-dasharray="1,5" d="M90,-104C98.36,-104 107.15,-103.45 115.76,-102.58"/>
<polygon fill="black" stroke="black" points="116.2,-106.06 125.74,-101.45 115.41,-99.1 116.2,-106.06"/>
</g>
<!-- header&#45;&gt;table -->
<g id="edge2" class="edge">
<title>header:media&#45;&gt;table:files</title>
<path fill="none" stroke="black" stroke-dasharray="1,5" d="M90,-81C102,-81 107.25,-81 115.88,-81"/>
<polygon fill="black" stroke="black" points="116,-84.5 126,-81 116,-77.5 116,-84.5"/>
</g>
<!-- header&#45;&gt;table -->
<g id="edge3" class="edge">
<title>header:rater&#45;&gt;table:column</title>
<path fill="none" stroke="black" stroke-dasharray="1,5" d="M90,-58C128.52,-58 175.24,-32.13 183.67,-58.91"/>
<polygon fill="black" stroke="black" points="180.22,-59.54 185,-69 187.16,-58.63 180.22,-59.54"/>
</g>
<!-- header&#45;&gt;table -->
<g id="edge4" class="edge">
<title>header:scheme&#45;&gt;table:column</title>
<path fill="none" stroke="black" stroke-dasharray="1,5" d="M90,-35C130.99,-35 176.42,-25.94 183.92,-58.63"/>
<polygon fill="black" stroke="black" points="180.49,-59.41 185,-69 187.45,-58.69 180.49,-59.41"/>
</g>
<!-- header&#45;&gt;table -->
<g id="edge5" class="edge">
<title>header:table&#45;&gt;table</title>
<path fill="none" stroke="black" d="M90,-127C101.68,-127 113.65,-124.08 124.72,-119.95"/>
<polygon fill="black" stroke="black" points="126.28,-123.09 134.2,-116.06 123.62,-116.62 126.28,-123.09"/>
</g>
</g>
</svg>
