<?xml version="1.0" encoding="UTF-8" standalone="no"?>
<!DOCTYPE svg PUBLIC "-//W3C//DTD SVG 1.1//EN"
 "http://www.w3.org/Graphics/SVG/1.1/DTD/svg11.dtd">
<!-- Generated by graphviz version 2.40.1 (20161225.0304)
 -->
<!-- Title: %3 Pages: 1 -->
<svg width="460pt" height="287pt"
 viewBox="0.00 0.00 460.00 287.00" xmlns="http://www.w3.org/2000/svg" xmlns:xlink="http://www.w3.org/1999/xlink">
<g id="graph0" class="graph" transform="scale(1 1) rotate(0) translate(4 283)">
<title>%3</title>
<polygon fill="#ffffff" stroke="transparent" points="-4,4 -4,-283 456,-283 456,4 -4,4"/>
<!-- header -->
<g id="node1" class="node">
<title>header</title>
<polygon fill="none" stroke="#000000" points="171.5,-163.5 171.5,-278.5 232.5,-278.5 232.5,-163.5 171.5,-163.5"/>
<text text-anchor="middle" x="202" y="-263.3" font-family="Times,serif" font-size="14.00" fill="#000000">Header</text>
<polyline fill="none" stroke="#000000" points="171.5,-255.5 232.5,-255.5 "/>
<text text-anchor="middle" x="202" y="-240.3" font-family="Times,serif" font-size="14.00" fill="#000000">...</text>
<polyline fill="none" stroke="#000000" points="171.5,-232.5 232.5,-232.5 "/>
<text text-anchor="middle" x="202" y="-217.3" font-family="Times,serif" font-size="14.00" fill="#000000">Table#1</text>
<polyline fill="none" stroke="#000000" points="171.5,-209.5 232.5,-209.5 "/>
<text text-anchor="middle" x="202" y="-194.3" font-family="Times,serif" font-size="14.00" fill="#000000">Table#2</text>
<polyline fill="none" stroke="#000000" points="171.5,-186.5 232.5,-186.5 "/>
<text text-anchor="middle" x="202" y="-171.3" font-family="Times,serif" font-size="14.00" fill="#000000">...</text>
</g>
<!-- tbl1 -->
<g id="node2" class="node">
<title>tbl1</title>
<polygon fill="none" stroke="#000000" points="11,-87.5 11,-108.5 159,-108.5 159,-87.5 11,-87.5"/>
<text text-anchor="start" x="62.5" y="-94.3" font-family="Times,serif" font-size="14.00" fill="#000000">Table#1</text>
<polygon fill="none" stroke="#000000" points="11,-64.5 11,-85.5 69,-85.5 69,-64.5 11,-64.5"/>
<text text-anchor="start" x="29" y="-71.3" font-family="Times,serif" font-size="14.00" fill="#000000">File</text>
<polygon fill="none" stroke="#000000" points="71,-64.5 71,-85.5 111,-85.5 111,-64.5 71,-64.5"/>
<text text-anchor="start" x="74" y="-71.3" font-family="Times,serif" font-size="14.00" fill="#000000">Name</text>
<polygon fill="none" stroke="#000000" points="113,-64.5 113,-85.5 159,-85.5 159,-64.5 113,-64.5"/>
<text text-anchor="start" x="116" y="-71.3" font-family="Times,serif" font-size="14.00" fill="#000000">Gender</text>
<polygon fill="none" stroke="#000000" points="11,-41.5 11,-62.5 69,-62.5 69,-41.5 11,-41.5"/>
<text text-anchor="start" x="14" y="-48.3" font-family="Times,serif" font-size="14.00" fill="#000000">alice.wav</text>
<polygon fill="none" stroke="#000000" points="71,-41.5 71,-62.5 111,-62.5 111,-41.5 71,-41.5"/>
<text text-anchor="start" x="76" y="-48.3" font-family="Times,serif" font-size="14.00" fill="#000000">Alice</text>
<polygon fill="none" stroke="#000000" points="113,-41.5 113,-62.5 159,-62.5 159,-41.5 113,-41.5"/>
<text text-anchor="start" x="117" y="-48.3" font-family="Times,serif" font-size="14.00" fill="#000000">female</text>
<polygon fill="none" stroke="#000000" points="11,-18.5 11,-39.5 69,-39.5 69,-18.5 11,-18.5"/>
<text text-anchor="start" x="16.5" y="-25.3" font-family="Times,serif" font-size="14.00" fill="#000000">bob.wav</text>
<polygon fill="none" stroke="#000000" points="71,-18.5 71,-39.5 111,-39.5 111,-18.5 71,-18.5"/>
<text text-anchor="start" x="79.5" y="-25.3" font-family="Times,serif" font-size="14.00" fill="#000000">Bob</text>
<polygon fill="none" stroke="#000000" points="113,-18.5 113,-39.5 159,-39.5 159,-18.5 113,-18.5"/>
<text text-anchor="start" x="122" y="-25.3" font-family="Times,serif" font-size="14.00" fill="#000000">male</text>
<polygon fill="none" stroke="#000000" points="8,-15.5 8,-111.5 162,-111.5 162,-15.5 8,-15.5"/>
</g>
<!-- header&#45;&gt;tbl1 -->
<g id="edge1" class="edge">
<title>header:tbl1&#45;&gt;tbl1</title>
<path fill="none" stroke="#000000" d="M171,-221C125.3818,-221 103.8132,-169.4729 93.7068,-125.3632"/>
<polygon fill="#000000" stroke="#000000" points="97.1139,-124.5579 91.6051,-115.5079 90.2679,-126.018 97.1139,-124.5579"/>
</g>
<!-- tbl2 -->
<g id="node3" class="node">
<title>tbl2</title>
<polygon fill="none" stroke="#000000" points="199,-98.5 199,-119.5 441,-119.5 441,-98.5 199,-98.5"/>
<text text-anchor="start" x="297.5" y="-105.3" font-family="Times,serif" font-size="14.00" fill="#000000">Table#2</text>
<polygon fill="none" stroke="#000000" points="199,-75.5 199,-96.5 257,-96.5 257,-75.5 199,-75.5"/>
<text text-anchor="start" x="217" y="-82.3" font-family="Times,serif" font-size="14.00" fill="#000000">File</text>
<polygon fill="none" stroke="#000000" points="259,-75.5 259,-96.5 291,-96.5 291,-75.5 259,-75.5"/>
<text text-anchor="start" x="262" y="-82.3" font-family="Times,serif" font-size="14.00" fill="#000000">Start</text>
<polygon fill="none" stroke="#000000" points="293,-75.5 293,-96.5 321,-96.5 321,-75.5 293,-75.5"/>
<text text-anchor="start" x="296" y="-82.3" font-family="Times,serif" font-size="14.00" fill="#000000">End</text>
<polygon fill="none" stroke="#000000" points="323,-75.5 323,-96.5 441,-96.5 441,-75.5 323,-75.5"/>
<text text-anchor="start" x="369.5" y="-82.3" font-family="Times,serif" font-size="14.00" fill="#000000">Text</text>
<polygon fill="none" stroke="#000000" points="199,-52.5 199,-73.5 257,-73.5 257,-52.5 199,-52.5"/>
<text text-anchor="start" x="202" y="-59.3" font-family="Times,serif" font-size="14.00" fill="#000000">alice.wav</text>
<polygon fill="none" stroke="#000000" points="259,-52.5 259,-73.5 291,-73.5 291,-52.5 259,-52.5"/>
<text text-anchor="start" x="266" y="-59.3" font-family="Times,serif" font-size="14.00" fill="#000000">0.2</text>
<polygon fill="none" stroke="#000000" points="293,-52.5 293,-73.5 321,-73.5 321,-52.5 293,-52.5"/>
<text text-anchor="start" x="298" y="-59.3" font-family="Times,serif" font-size="14.00" fill="#000000">1.1</text>
<polygon fill="none" stroke="#000000" points="323,-52.5 323,-73.5 441,-73.5 441,-52.5 323,-52.5"/>
<text text-anchor="start" x="345.5" y="-59.3" font-family="Times,serif" font-size="14.00" fill="#000000">Hi, I&#39;m Alice</text>
<polygon fill="none" stroke="#000000" points="199,-29.5 199,-50.5 257,-50.5 257,-29.5 199,-29.5"/>
<text text-anchor="start" x="204.5" y="-36.3" font-family="Times,serif" font-size="14.00" fill="#000000">bob.wav</text>
<polygon fill="none" stroke="#000000" points="259,-29.5 259,-50.5 291,-50.5 291,-29.5 259,-29.5"/>
<text text-anchor="start" x="266" y="-36.3" font-family="Times,serif" font-size="14.00" fill="#000000">1.4</text>
<polygon fill="none" stroke="#000000" points="293,-29.5 293,-50.5 321,-50.5 321,-29.5 293,-29.5"/>
<text text-anchor="start" x="298" y="-36.3" font-family="Times,serif" font-size="14.00" fill="#000000">3.0</text>
<polygon fill="none" stroke="#000000" points="323,-29.5 323,-50.5 441,-50.5 441,-29.5 323,-29.5"/>
<text text-anchor="start" x="326" y="-36.3" font-family="Times,serif" font-size="14.00" fill="#000000">How are you doing?</text>
<polygon fill="none" stroke="#000000" points="199,-6.5 199,-27.5 257,-27.5 257,-6.5 199,-6.5"/>
<text text-anchor="start" x="202" y="-13.3" font-family="Times,serif" font-size="14.00" fill="#000000">alice.wav</text>
<polygon fill="none" stroke="#000000" points="259,-6.5 259,-27.5 291,-27.5 291,-6.5 259,-6.5"/>
<text text-anchor="start" x="266" y="-13.3" font-family="Times,serif" font-size="14.00" fill="#000000">3.4</text>
<polygon fill="none" stroke="#000000" points="293,-6.5 293,-27.5 321,-27.5 321,-6.5 293,-6.5"/>
<text text-anchor="start" x="298" y="-13.3" font-family="Times,serif" font-size="14.00" fill="#000000">4.7</text>
<polygon fill="none" stroke="#000000" points="323,-6.5 323,-27.5 441,-27.5 441,-6.5 323,-6.5"/>
<text text-anchor="start" x="331.5" y="-13.3" font-family="Times,serif" font-size="14.00" fill="#000000">Thanks, I&#39;m good!</text>
<polygon fill="none" stroke="#000000" points="196,-4 196,-123 444,-123 444,-4 196,-4"/>
</g>
<!-- header&#45;&gt;tbl2 -->
<g id="edge2" class="edge">
<title>header:tbl2&#45;&gt;tbl2</title>
<path fill="none" stroke="#000000" d="M233,-198C266.5375,-198 287.784,-168.1526 300.8771,-136.5787"/>
<polygon fill="#000000" stroke="#000000" points="304.1599,-137.7938 304.5201,-127.2051 297.6353,-135.258 304.1599,-137.7938"/>
</g>
</g>
</svg>
