<?xml version="1.0" encoding="UTF-8" standalone="no"?>
<!DOCTYPE svg PUBLIC "-//W3C//DTD SVG 1.1//EN"
 "http://www.w3.org/Graphics/SVG/1.1/DTD/svg11.dtd">
<!-- Generated by graphviz version 2.40.1 (20161225.0304)
 -->
<!-- Title: %3 Pages: 1 -->
<svg width="562pt" height="287pt"
 viewBox="0.00 0.00 561.50 287.00" xmlns="http://www.w3.org/2000/svg" xmlns:xlink="http://www.w3.org/1999/xlink">
<g id="graph0" class="graph" transform="scale(1 1) rotate(0) translate(4 283)">
<title>%3</title>
<polygon fill="#ffffff" stroke="transparent" points="-4,4 -4,-283 557.5,-283 557.5,4 -4,4"/>
<!-- header -->
<g id="node1" class="node">
<title>header</title>
<polygon fill="none" stroke="#000000" points="208,-163.5 208,-278.5 285,-278.5 285,-163.5 208,-163.5"/>
<text text-anchor="middle" x="246.5" y="-263.3" font-family="Times,serif" font-size="14.00" fill="#000000">Header</text>
<polyline fill="none" stroke="#000000" points="208,-255.5 285,-255.5 "/>
<text text-anchor="middle" x="246.5" y="-240.3" font-family="Times,serif" font-size="14.00" fill="#000000">...</text>
<polyline fill="none" stroke="#000000" points="208,-232.5 285,-232.5 "/>
<text text-anchor="middle" x="246.5" y="-217.3" font-family="Times,serif" font-size="14.00" fill="#000000">Table#1</text>
<polyline fill="none" stroke="#000000" points="208,-209.5 285,-209.5 "/>
<text text-anchor="middle" x="246.5" y="-194.3" font-family="Times,serif" font-size="14.00" fill="#000000">Table#2</text>
<polyline fill="none" stroke="#000000" points="208,-186.5 285,-186.5 "/>
<text text-anchor="middle" x="246.5" y="-171.3" font-family="Times,serif" font-size="14.00" fill="#000000">...</text>
</g>
<!-- tbl1 -->
<g id="node2" class="node">
<title>tbl1</title>
<polygon fill="none" stroke="#000000" points="11.5,-87.5 11.5,-108.5 196.5,-108.5 196.5,-87.5 11.5,-87.5"/>
<text text-anchor="start" x="73.5" y="-94.3" font-family="Times,serif" font-size="14.00" fill="#000000">Table#1</text>
<polygon fill="none" stroke="#000000" points="11.5,-64.5 11.5,-85.5 84.5,-85.5 84.5,-64.5 11.5,-64.5"/>
<text text-anchor="start" x="34" y="-71.3" font-family="Times,serif" font-size="14.00" fill="#000000">File</text>
<polygon fill="none" stroke="#000000" points="86.5,-64.5 86.5,-85.5 135.5,-85.5 135.5,-64.5 86.5,-64.5"/>
<text text-anchor="start" x="89.5" y="-71.3" font-family="Times,serif" font-size="14.00" fill="#000000">Name</text>
<polygon fill="none" stroke="#000000" points="137.5,-64.5 137.5,-85.5 196.5,-85.5 196.5,-64.5 137.5,-64.5"/>
<text text-anchor="start" x="140.5" y="-71.3" font-family="Times,serif" font-size="14.00" fill="#000000">Gender</text>
<polygon fill="none" stroke="#000000" points="11.5,-41.5 11.5,-62.5 84.5,-62.5 84.5,-41.5 11.5,-41.5"/>
<text text-anchor="start" x="14.5" y="-48.3" font-family="Times,serif" font-size="14.00" fill="#000000">alice.wav</text>
<polygon fill="none" stroke="#000000" points="86.5,-41.5 86.5,-62.5 135.5,-62.5 135.5,-41.5 86.5,-41.5"/>
<text text-anchor="start" x="92.5" y="-48.3" font-family="Times,serif" font-size="14.00" fill="#000000">Alice</text>
<polygon fill="none" stroke="#000000" points="137.5,-41.5 137.5,-62.5 196.5,-62.5 196.5,-41.5 137.5,-41.5"/>
<text text-anchor="start" x="142.5" y="-48.3" font-family="Times,serif" font-size="14.00" fill="#000000">female</text>
<polygon fill="none" stroke="#000000" points="11.5,-18.5 11.5,-39.5 84.5,-39.5 84.5,-18.5 11.5,-18.5"/>
<text text-anchor="start" x="18" y="-25.3" font-family="Times,serif" font-size="14.00" fill="#000000">bob.wav</text>
<polygon fill="none" stroke="#000000" points="86.5,-18.5 86.5,-39.5 135.5,-39.5 135.5,-18.5 86.5,-18.5"/>
<text text-anchor="start" x="97" y="-25.3" font-family="Times,serif" font-size="14.00" fill="#000000">Bob</text>
<polygon fill="none" stroke="#000000" points="137.5,-18.5 137.5,-39.5 196.5,-39.5 196.5,-18.5 137.5,-18.5"/>
<text text-anchor="start" x="149.5" y="-25.3" font-family="Times,serif" font-size="14.00" fill="#000000">male</text>
<polygon fill="none" stroke="#000000" points="8,-15.5 8,-111.5 199,-111.5 199,-15.5 8,-15.5"/>
</g>
<!-- header&#45;&gt;tbl1 -->
<g id="edge1" class="edge">
<title>header:tbl1&#45;&gt;tbl1</title>
<path fill="none" stroke="#000000" d="M207.5,-221C159.4197,-221 132.2891,-169.2562 117.8884,-125.0853"/>
<polygon fill="#000000" stroke="#000000" points="121.2238,-124.0239 114.9208,-115.5079 114.5374,-126.0958 121.2238,-124.0239"/>
</g>
<!-- tbl2 -->
<g id="node3" class="node">
<title>tbl2</title>
<polygon fill="none" stroke="#000000" points="236.5,-98.5 236.5,-119.5 542.5,-119.5 542.5,-98.5 236.5,-98.5"/>
<text text-anchor="start" x="359" y="-105.3" font-family="Times,serif" font-size="14.00" fill="#000000">Table#2</text>
<polygon fill="none" stroke="#000000" points="236.5,-75.5 236.5,-96.5 309.5,-96.5 309.5,-75.5 236.5,-75.5"/>
<text text-anchor="start" x="259" y="-82.3" font-family="Times,serif" font-size="14.00" fill="#000000">File</text>
<polygon fill="none" stroke="#000000" points="311.5,-75.5 311.5,-96.5 354.5,-96.5 354.5,-75.5 311.5,-75.5"/>
<text text-anchor="start" x="314.5" y="-82.3" font-family="Times,serif" font-size="14.00" fill="#000000">Start</text>
<polygon fill="none" stroke="#000000" points="356.5,-75.5 356.5,-96.5 391.5,-96.5 391.5,-75.5 356.5,-75.5"/>
<text text-anchor="start" x="359.5" y="-82.3" font-family="Times,serif" font-size="14.00" fill="#000000">End</text>
<polygon fill="none" stroke="#000000" points="393.5,-75.5 393.5,-96.5 542.5,-96.5 542.5,-75.5 393.5,-75.5"/>
<text text-anchor="start" x="452" y="-82.3" font-family="Times,serif" font-size="14.00" fill="#000000">Text</text>
<polygon fill="none" stroke="#000000" points="236.5,-52.5 236.5,-73.5 309.5,-73.5 309.5,-52.5 236.5,-52.5"/>
<text text-anchor="start" x="239.5" y="-59.3" font-family="Times,serif" font-size="14.00" fill="#000000">alice.wav</text>
<polygon fill="none" stroke="#000000" points="311.5,-52.5 311.5,-73.5 354.5,-73.5 354.5,-52.5 311.5,-52.5"/>
<text text-anchor="start" x="321.5" y="-59.3" font-family="Times,serif" font-size="14.00" fill="#000000">0.2</text>
<polygon fill="none" stroke="#000000" points="356.5,-52.5 356.5,-73.5 391.5,-73.5 391.5,-52.5 356.5,-52.5"/>
<text text-anchor="start" x="362.5" y="-59.3" font-family="Times,serif" font-size="14.00" fill="#000000">1.1</text>
<polygon fill="none" stroke="#000000" points="393.5,-52.5 393.5,-73.5 542.5,-73.5 542.5,-52.5 393.5,-52.5"/>
<text text-anchor="start" x="422.5" y="-59.3" font-family="Times,serif" font-size="14.00" fill="#000000">Hi, I&#39;m Alice</text>
<polygon fill="none" stroke="#000000" points="236.5,-29.5 236.5,-50.5 309.5,-50.5 309.5,-29.5 236.5,-29.5"/>
<text text-anchor="start" x="243" y="-36.3" font-family="Times,serif" font-size="14.00" fill="#000000">bob.wav</text>
<polygon fill="none" stroke="#000000" points="311.5,-29.5 311.5,-50.5 354.5,-50.5 354.5,-29.5 311.5,-29.5"/>
<text text-anchor="start" x="321.5" y="-36.3" font-family="Times,serif" font-size="14.00" fill="#000000">1.4</text>
<polygon fill="none" stroke="#000000" points="356.5,-29.5 356.5,-50.5 391.5,-50.5 391.5,-29.5 356.5,-29.5"/>
<text text-anchor="start" x="362.5" y="-36.3" font-family="Times,serif" font-size="14.00" fill="#000000">3.0</text>
<polygon fill="none" stroke="#000000" points="393.5,-29.5 393.5,-50.5 542.5,-50.5 542.5,-29.5 393.5,-29.5"/>
<text text-anchor="start" x="396.5" y="-36.3" font-family="Times,serif" font-size="14.00" fill="#000000">How are you doing?</text>
<polygon fill="none" stroke="#000000" points="236.5,-6.5 236.5,-27.5 309.5,-27.5 309.5,-6.5 236.5,-6.5"/>
<text text-anchor="start" x="239.5" y="-13.3" font-family="Times,serif" font-size="14.00" fill="#000000">alice.wav</text>
<polygon fill="none" stroke="#000000" points="311.5,-6.5 311.5,-27.5 354.5,-27.5 354.5,-6.5 311.5,-6.5"/>
<text text-anchor="start" x="321.5" y="-13.3" font-family="Times,serif" font-size="14.00" fill="#000000">3.4</text>
<polygon fill="none" stroke="#000000" points="356.5,-6.5 356.5,-27.5 391.5,-27.5 391.5,-6.5 356.5,-6.5"/>
<text text-anchor="start" x="362.5" y="-13.3" font-family="Times,serif" font-size="14.00" fill="#000000">4.7</text>
<polygon fill="none" stroke="#000000" points="393.5,-6.5 393.5,-27.5 542.5,-27.5 542.5,-6.5 393.5,-6.5"/>
<text text-anchor="start" x="403" y="-13.3" font-family="Times,serif" font-size="14.00" fill="#000000">Thanks, I&#39;m good!</text>
<polygon fill="none" stroke="#000000" points="233.5,-4 233.5,-123 545.5,-123 545.5,-4 233.5,-4"/>
</g>
<!-- header&#45;&gt;tbl2 -->
<g id="edge2" class="edge">
<title>header:tbl2&#45;&gt;tbl2</title>
<path fill="none" stroke="#000000" d="M285.5,-198C321.2491,-198 346.45,-167.8959 363.082,-136.1721"/>
<polygon fill="#000000" stroke="#000000" points="366.2227,-137.7168 367.5475,-127.2051 359.9567,-134.5963 366.2227,-137.7168"/>
</g>
</g>
</svg>
